<?xml version="1.0" encoding="utf-8"?>
<!-- Generator: Adobe Illustrator 18.0.0, SVG Export Plug-In . SVG Version: 6.00 Build 0)  -->
<!DOCTYPE svg PUBLIC "-//W3C//DTD SVG 1.1//EN" "http://www.w3.org/Graphics/SVG/1.1/DTD/svg11.dtd">
<svg version="1.1" id="Layer_1" xmlns="http://www.w3.org/2000/svg" xmlns:xlink="http://www.w3.org/1999/xlink" x="0px" y="0px"
	 viewBox="311.7 -21.7 495 577.1" enable-background="new 311.7 -21.7 495 577.1" xml:space="preserve">
<g>
	<g>
		<path fill="#424243" d="M311.7,514.9c0-6.6,1.8-12,5.3-16.1c3.5-4.1,8.2-6.1,14.2-6.1c6,0,10.8,2,14.3,6.1
			c3.5,4.1,5.3,9.4,5.3,16.1v1.3c0,6.7-1.7,12-5.2,16.1s-8.2,6.1-14.2,6.1c-6,0-10.8-2-14.3-6.1s-5.3-9.4-5.3-16.1V514.9z
			 M316.6,516.3c0,5.2,1.3,9.5,3.8,12.9c2.5,3.4,6.2,5.1,10.9,5.1c4.6,0,8.2-1.7,10.8-5.1c2.5-3.4,3.8-7.7,3.8-12.9v-1.3
			c0-5.1-1.3-9.4-3.8-12.8c-2.6-3.5-6.2-5.2-10.8-5.2c-4.7,0-8.3,1.7-10.8,5.2c-2.5,3.5-3.8,7.7-3.8,12.8V516.3z"/>
		<path fill="#424243" d="M364,537.6h-4.8v-63.5h4.8V537.6z"/>
		<path fill="#424243" d="M392.1,538.4c-5.9,0-10.6-2-14.2-6c-3.6-4-5.4-9.2-5.4-15.6v-2.2c0-6.4,1.8-11.7,5.4-15.8
			c3.6-4.1,8-6.1,13.3-6.1c5.5,0,9.8,1.7,12.8,5c3,3.4,4.5,7.9,4.5,13.8v4.2h-31.1v1.2c0,5,1.3,9.2,4,12.5c2.7,3.3,6.3,4.9,10.8,4.9
			c2.7,0,5-0.4,7.1-1.2c2-0.8,3.9-2,5.8-3.7l2.1,3.3c-1.7,1.7-3.7,3.1-6.1,4.1C398.6,537.9,395.6,538.4,392.1,538.4z M391.1,496.9
			c-3.7,0-6.7,1.4-9.1,4.1s-3.9,6.3-4.5,10.6h26.1v-1.2c0-3.9-1.1-7.1-3.3-9.7C398.1,498.1,395,496.9,391.1,496.9z"/>
		<path fill="#424243" d="M420.9,501.4l0.1,0c1.5-2.7,3.4-4.8,5.8-6.4c2.4-1.5,5.2-2.3,8.5-2.3c4.7,0,8.3,1.4,10.8,4.2
			s3.7,7.3,3.7,13.5v27.2h-4.9v-27.2c0-4.9-0.9-8.4-2.7-10.4c-1.8-2-4.5-3-8.1-3c-3.2,0-5.9,0.9-8.1,2.7c-2.2,1.8-3.9,4.2-5.1,7
			v30.9H416v-63.5h4.9V501.4z"/>
		<path fill="#424243" d="M486,533.5h28.6v4.1h-34.7V534l26.6-36.3h-25.7v-4.2h31.9v3.6L486,533.5z"/>
		<path fill="#424243" d="M549.4,537.6c-0.3-1.5-0.6-2.8-0.7-3.8c-0.1-1-0.2-2.1-0.2-3.1l-0.1,0c-1.6,2.3-3.7,4.2-6.4,5.6
			c-2.7,1.5-5.7,2.2-9.2,2.2c-4.4,0-7.7-1.1-10.1-3.3s-3.5-5.3-3.5-9.2c0-4.2,1.7-7.4,5.2-9.8c3.5-2.4,8.2-3.6,14.3-3.6h9.7V507
			c0-3.2-1-5.7-3-7.5c-2-1.8-4.8-2.6-8.5-2.6c-3.5,0-6.3,0.8-8.5,2.5c-2.2,1.7-3.3,3.8-3.3,6.3l-4.8,0c0-3.5,1.6-6.5,4.7-9.1
			c3.1-2.6,7.2-3.9,12.2-3.9c5,0,8.9,1.2,11.8,3.6s4.4,6,4.4,10.7v21.7c0,1.6,0.1,3.1,0.2,4.5c0.2,1.4,0.5,2.9,0.9,4.4H549.4z
			 M533.4,534.1c3.6,0,6.7-0.8,9.3-2.4c2.6-1.6,4.6-3.7,5.8-6.3v-9.2h-9.8c-4.5,0-8.1,0.9-10.7,2.8c-2.6,1.9-3.9,4.2-3.9,7.1
			c0,2.4,0.8,4.4,2.4,5.9C528.1,533.4,530.4,534.1,533.4,534.1z"/>
		<path fill="#424243" d="M589.5,526.4c0-2.1-0.8-3.9-2.5-5.4c-1.7-1.5-4.7-2.8-9.2-3.8c-5.4-1.2-9.3-2.7-11.7-4.5
			c-2.5-1.8-3.7-4.5-3.7-8c0-3.4,1.4-6.3,4.2-8.6c2.8-2.3,6.6-3.4,11.3-3.4c5.1,0,9.1,1.2,11.9,3.6s4.3,5.6,4.3,9.5h-4.9
			c0-2.5-1-4.6-3-6.4c-2-1.8-4.8-2.6-8.3-2.6c-3.6,0-6.3,0.8-8,2.3c-1.8,1.5-2.6,3.3-2.6,5.4c0,2.1,0.7,3.7,2.2,5
			c1.5,1.3,4.6,2.5,9.2,3.5c5.3,1.2,9.3,2.8,11.8,4.7c2.6,2,3.8,4.7,3.8,8.3c0,3.7-1.5,6.7-4.4,8.9c-2.9,2.2-6.9,3.3-11.9,3.3
			c-5.5,0-9.7-1.3-12.7-3.8c-3-2.5-4.5-5.6-4.5-9.4h4.8c0.2,3.3,1.5,5.6,3.8,7c2.4,1.4,5.2,2.1,8.5,2.1c3.6,0,6.4-0.8,8.4-2.3
			C588.5,530.5,589.5,528.7,589.5,526.4z"/>
		<path fill="#424243" d="M631.1,537.6c-0.3-1.5-0.6-2.8-0.7-3.8c-0.1-1-0.2-2.1-0.2-3.1l-0.1,0c-1.6,2.3-3.7,4.2-6.4,5.6
			c-2.7,1.5-5.7,2.2-9.2,2.2c-4.4,0-7.7-1.1-10.1-3.3s-3.5-5.3-3.5-9.2c0-4.2,1.7-7.4,5.2-9.8c3.5-2.4,8.2-3.6,14.3-3.6h9.7V507
			c0-3.2-1-5.7-3-7.5c-2-1.8-4.8-2.6-8.5-2.6c-3.5,0-6.3,0.8-8.5,2.5c-2.2,1.7-3.3,3.8-3.3,6.3l-4.8,0c0-3.5,1.6-6.5,4.7-9.1
			c3.1-2.6,7.2-3.9,12.2-3.9c5,0,8.9,1.2,11.8,3.6s4.4,6,4.4,10.7v21.7c0,1.6,0.1,3.1,0.2,4.5c0.2,1.4,0.5,2.9,0.9,4.4H631.1z
			 M615.1,534.1c3.6,0,6.7-0.8,9.3-2.4c2.6-1.6,4.6-3.7,5.8-6.3v-9.2h-9.8c-4.5,0-8.1,0.9-10.7,2.8c-2.6,1.9-3.9,4.2-3.9,7.1
			c0,2.4,0.8,4.4,2.4,5.9C609.8,533.4,612.1,534.1,615.1,534.1z"/>
		<path fill="#424243" d="M643.3,515.9c0-7.2,1.5-12.8,4.4-17c2.9-4.2,7.1-6.2,12.5-6.2c3.1,0,5.8,0.6,8,1.9c2.2,1.2,4,3.1,5.5,5.4
			l0.1,0v-25.9h4.8v63.5h-4.3l-0.4-6.2l-0.1,0c-1.5,2.3-3.3,4-5.6,5.2c-2.2,1.2-4.9,1.8-8.1,1.8c-5.4,0-9.5-1.9-12.4-5.8
			s-4.4-9.1-4.4-15.8V515.9z M648.2,516.8c0,5.4,1,9.7,3.1,12.8s5.3,4.6,9.7,4.6c3.2,0,5.9-0.7,7.9-2.1c2-1.4,3.7-3.4,4.9-5.9v-20.7
			c-1.1-2.6-2.7-4.7-4.7-6.3c-2-1.6-4.7-2.3-8-2.3c-4.4,0-7.6,1.7-9.7,5.2s-3.2,8.1-3.2,13.8V516.8z"/>
		<path fill="#424243" d="M693.5,493.5l0.4,8.1l0.1,0c1.4-2.8,3.3-5,5.7-6.6c2.4-1.6,5.3-2.4,8.5-2.4c4.8,0,8.3,1.4,10.8,4.2
			c2.4,2.8,3.7,7.2,3.7,13.4v27.3h-4.9v-27.2c0-5-0.9-8.5-2.7-10.5c-1.8-2-4.5-2.9-8.1-2.9c-3.3,0-6.1,1-8.2,2.9
			c-2.2,1.9-3.8,4.3-4.9,7.2v30.5h-4.9v-44.1H693.5z"/>
		<path fill="#424243" d="M744.3,525.7l1.6,5.4h0.1l13.4-37.5h5.5l-19.1,51.1c-1.2,3.1-2.6,5.6-4.4,7.7s-4.4,3.1-8,3.1
			c-0.6,0-1.3-0.1-2.1-0.2s-1.4-0.3-1.8-0.4l0.6-4.1c0.3,0.1,0.8,0.1,1.6,0.2c0.7,0.1,1.2,0.1,1.6,0.1c2.2,0,3.8-0.6,4.9-1.9
			s2.2-3.3,3.4-6.2l2.3-5.9l-17-43.5h5.4L744.3,525.7z"/>
		<path fill="#424243" d="M786.1,525.7l1.6,5.4h0.1l13.4-37.5h5.5l-19.1,51.1c-1.2,3.1-2.6,5.6-4.4,7.7s-4.4,3.1-8,3.1
			c-0.6,0-1.3-0.1-2.1-0.2s-1.4-0.3-1.8-0.4l0.6-4.1c0.3,0.1,0.8,0.1,1.6,0.2c0.7,0.1,1.2,0.1,1.6,0.1c2.2,0,3.8-0.6,4.9-1.9
			s2.2-3.3,3.4-6.2l2.3-5.9l-17-43.5h5.4L786.1,525.7z"/>
	</g>
</g>
<path fill="#00ABC0" d="M560.9,48.3c37.4,0,72.6,14.6,99,41s41,61.6,41,99s-14.6,72.6-41,99s-61.6,41-99,41s-72.6-14.6-99-41
	s-41-61.6-41-99s14.6-72.6,41-99S523.5,48.3,560.9,48.3 M560.9-21.7c-116,0-210,94-210,210s94,210,210,210s210-94,210-210
	S676.9-21.7,560.9-21.7L560.9-21.7z"/>
<path fill="#05BBD3" d="M740.9,188.3c0-116-80.6-210-180-210c-99.4,0-180,94-180,210s80.6,210,180,210
	C660.3,398.3,740.9,304.2,740.9,188.3z M560.9,328.3c-37.4,0-72.6-14.6-99-41s-41-61.6-41-99s14.6-72.6,41-99s61.6-41,99-41
	s72.6,14.6,99,41s41,61.6,41,99s-14.6,72.6-41,99S598.3,328.3,560.9,328.3z"/>
</svg>
